<?xml version="1.0" encoding="UTF-8" standalone="no"?>
<!DOCTYPE svg PUBLIC "-//W3C//DTD SVG 1.1//EN"
 "http://www.w3.org/Graphics/SVG/1.1/DTD/svg11.dtd">
<!-- Generated by graphviz version 2.43.0 (0)
 -->
<!-- Title: PackedOnce Pages: 1 -->
<svg width="699pt" height="248pt"
 viewBox="0.00 0.00 699.12 247.85" xmlns="http://www.w3.org/2000/svg" xmlns:xlink="http://www.w3.org/1999/xlink">
<g id="graph0" class="graph" transform="scale(1 1) rotate(0) translate(4 243.85)">
<title>PackedOnce</title>
<polygon fill="white" stroke="transparent" points="-4,4 -4,-243.85 695.12,-243.85 695.12,4 -4,4"/>
<!-- n0 -->
<g id="node1" class="node">
<title>n0</title>
<ellipse fill="lightblue" stroke="black" cx="44.94" cy="-88.64" rx="33.88" ry="21.43"/>
<text text-anchor="middle" x="44.94" y="-91.64" font-family="Times,serif" font-size="10.00" fill="darkblue">v47</text>
<text text-anchor="middle" x="44.94" y="-80.64" font-family="Times,serif" font-size="10.00" fill="darkblue">(id=0)</text>
</g>
<!-- n1 -->
<g id="node2" class="node">
<title>n1</title>
<polygon fill="#f2f2f2" stroke="black" points="111.94,-170.85 57.94,-170.85 57.94,-134.85 111.94,-134.85 111.94,-170.85"/>
<text text-anchor="middle" x="84.94" y="-150.35" font-family="Times,serif" font-size="10.00">#1</text>
</g>
<!-- n1&#45;&gt;n0 -->
<g id="edge1" class="edge">
<title>n1&#45;&gt;n0</title>
<path fill="none" stroke="black" d="M74.01,-134.85C69.88,-128.43 65.1,-120.99 60.62,-114.02"/>
<polygon fill="black" stroke="black" points="62.28,-112.72 57.27,-108.81 58.75,-115 62.28,-112.72"/>
</g>
<!-- n2 -->
<g id="node3" class="node">
<title>n2</title>
<polygon fill="gold" stroke="black" points="452.94,-210.4 452.94,-225.31 437.12,-235.85 414.76,-235.85 398.94,-225.31 398.94,-210.4 414.76,-199.85 437.12,-199.85 452.94,-210.4"/>
<polygon fill="none" stroke="black" points="456.94,-208.26 456.94,-227.45 438.34,-239.85 413.55,-239.85 394.94,-227.45 394.94,-208.26 413.55,-195.85 438.34,-195.85 456.94,-208.26"/>
<text text-anchor="middle" x="425.94" y="-215.35" font-family="Times,serif" font-size="10.00">#2</text>
</g>
<!-- n2&#45;&gt;n1 -->
<g id="edge2" class="edge">
<title>n2&#45;&gt;n1</title>
<path fill="none" stroke="black" d="M394.78,-211.09C330.59,-199.24 184.14,-172.18 118.2,-160"/>
<polygon fill="black" stroke="black" points="118.36,-157.89 112.08,-158.87 117.6,-162.02 118.36,-157.89"/>
</g>
<!-- n5 -->
<g id="node6" class="node">
<title>n5</title>
<polygon fill="#f2f2f2" stroke="black" points="262.94,-170.85 208.94,-170.85 208.94,-134.85 262.94,-134.85 262.94,-170.85"/>
<text text-anchor="middle" x="235.94" y="-150.35" font-family="Times,serif" font-size="10.00">#5</text>
</g>
<!-- n2&#45;&gt;n5 -->
<g id="edge3" class="edge">
<title>n2&#45;&gt;n5</title>
<path fill="none" stroke="black" d="M396.25,-207.01C361.72,-195.56 304.88,-176.71 268.97,-164.81"/>
<polygon fill="black" stroke="black" points="269.32,-162.71 262.96,-162.81 268,-166.69 269.32,-162.71"/>
</g>
<!-- n11 -->
<g id="node12" class="node">
<title>n11</title>
<polygon fill="#f2f2f2" stroke="black" points="452.94,-170.85 398.94,-170.85 398.94,-134.85 452.94,-134.85 452.94,-170.85"/>
<text text-anchor="middle" x="425.94" y="-150.35" font-family="Times,serif" font-size="10.00">#11</text>
</g>
<!-- n2&#45;&gt;n11 -->
<g id="edge4" class="edge">
<title>n2&#45;&gt;n11</title>
<path fill="none" stroke="black" d="M425.94,-195.52C425.94,-189.65 425.94,-183.25 425.94,-177.27"/>
<polygon fill="black" stroke="black" points="428.04,-176.98 425.94,-170.98 423.84,-176.98 428.04,-176.98"/>
</g>
<!-- n17 -->
<g id="node18" class="node">
<title>n17</title>
<polygon fill="#f2f2f2" stroke="black" points="560.94,-170.85 506.94,-170.85 506.94,-134.85 560.94,-134.85 560.94,-170.85"/>
<text text-anchor="middle" x="533.94" y="-150.35" font-family="Times,serif" font-size="10.00">#17</text>
</g>
<!-- n2&#45;&gt;n17 -->
<g id="edge5" class="edge">
<title>n2&#45;&gt;n17</title>
<path fill="none" stroke="black" d="M449.38,-203.18C464.54,-194.34 484.49,-182.7 501.21,-172.95"/>
<polygon fill="black" stroke="black" points="502.62,-174.56 506.74,-169.72 500.5,-170.93 502.62,-174.56"/>
</g>
<!-- n19 -->
<g id="node20" class="node">
<title>n19</title>
<polygon fill="#f2f2f2" stroke="black" points="655.94,-170.85 601.94,-170.85 601.94,-134.85 655.94,-134.85 655.94,-170.85"/>
<text text-anchor="middle" x="628.94" y="-150.35" font-family="Times,serif" font-size="10.00">#19</text>
</g>
<!-- n2&#45;&gt;n19 -->
<g id="edge6" class="edge">
<title>n2&#45;&gt;n19</title>
<path fill="none" stroke="black" d="M455.89,-207.56C493.27,-195.96 556.97,-176.19 595.78,-164.14"/>
<polygon fill="black" stroke="black" points="596.68,-166.06 601.79,-162.28 595.44,-162.05 596.68,-166.06"/>
</g>
<!-- n3 -->
<g id="node4" class="node">
<title>n3</title>
<ellipse fill="lightblue" stroke="black" cx="33.94" cy="-21.21" rx="33.88" ry="21.43"/>
<text text-anchor="middle" x="33.94" y="-24.21" font-family="Times,serif" font-size="10.00" fill="darkblue">v83</text>
<text text-anchor="middle" x="33.94" y="-13.21" font-family="Times,serif" font-size="10.00" fill="darkblue">(id=3)</text>
</g>
<!-- n4 -->
<g id="node5" class="node">
<title>n4</title>
<polygon fill="#f2f2f2" stroke="black" points="150.94,-106.64 96.94,-106.64 96.94,-70.64 150.94,-70.64 150.94,-106.64"/>
<text text-anchor="middle" x="123.94" y="-86.14" font-family="Times,serif" font-size="10.00">#4</text>
</g>
<!-- n4&#45;&gt;n3 -->
<g id="edge7" class="edge">
<title>n4&#45;&gt;n3</title>
<path fill="none" stroke="black" d="M100.29,-70.45C87.97,-61.49 72.87,-50.51 60.19,-41.29"/>
<polygon fill="black" stroke="black" points="61.36,-39.55 55.28,-37.72 58.9,-42.95 61.36,-39.55"/>
</g>
<!-- n12 -->
<g id="node13" class="node">
<title>n12</title>
<ellipse fill="lightblue" stroke="black" cx="123.94" cy="-21.21" rx="38.37" ry="21.43"/>
<text text-anchor="middle" x="123.94" y="-24.21" font-family="Times,serif" font-size="10.00" fill="darkblue">v10</text>
<text text-anchor="middle" x="123.94" y="-13.21" font-family="Times,serif" font-size="10.00" fill="darkblue">(id=12)</text>
</g>
<!-- n4&#45;&gt;n12 -->
<g id="edge8" class="edge">
<title>n4&#45;&gt;n12</title>
<path fill="none" stroke="black" d="M123.94,-70.45C123.94,-63.82 123.94,-56.09 123.94,-48.78"/>
<polygon fill="black" stroke="black" points="126.04,-48.78 123.94,-42.78 121.84,-48.78 126.04,-48.78"/>
</g>
<!-- n5&#45;&gt;n4 -->
<g id="edge9" class="edge">
<title>n5&#45;&gt;n4</title>
<path fill="none" stroke="black" d="M208.83,-136.93C194.32,-128.92 176.14,-118.88 159.94,-109.85 158.77,-109.2 157.58,-108.54 156.38,-107.86"/>
<polygon fill="black" stroke="black" points="157.32,-105.99 151.06,-104.89 155.27,-109.65 157.32,-105.99"/>
</g>
<!-- n7 -->
<g id="node8" class="node">
<title>n7</title>
<polygon fill="#f2f2f2" stroke="black" points="222.94,-106.64 168.94,-106.64 168.94,-70.64 222.94,-70.64 222.94,-106.64"/>
<text text-anchor="middle" x="195.94" y="-86.14" font-family="Times,serif" font-size="10.00">#7</text>
</g>
<!-- n5&#45;&gt;n7 -->
<g id="edge10" class="edge">
<title>n5&#45;&gt;n7</title>
<path fill="none" stroke="black" d="M225.01,-134.85C220.5,-127.84 215.21,-119.61 210.39,-112.11"/>
<polygon fill="black" stroke="black" points="212.15,-110.96 207.14,-107.05 208.62,-113.23 212.15,-110.96"/>
</g>
<!-- n8 -->
<g id="node9" class="node">
<title>n8</title>
<ellipse fill="lightblue" stroke="black" cx="274.94" cy="-88.64" rx="33.88" ry="21.43"/>
<text text-anchor="middle" x="274.94" y="-91.64" font-family="Times,serif" font-size="10.00" fill="darkblue">v38</text>
<text text-anchor="middle" x="274.94" y="-80.64" font-family="Times,serif" font-size="10.00" fill="darkblue">(id=8)</text>
</g>
<!-- n5&#45;&gt;n8 -->
<g id="edge11" class="edge">
<title>n5&#45;&gt;n8</title>
<path fill="none" stroke="black" d="M246.6,-134.85C250.62,-128.43 255.29,-120.99 259.65,-114.02"/>
<polygon fill="black" stroke="black" points="261.51,-115.01 262.92,-108.81 257.96,-112.78 261.51,-115.01"/>
</g>
<!-- n6 -->
<g id="node7" class="node">
<title>n6</title>
<ellipse fill="lightblue" stroke="black" cx="213.94" cy="-21.21" rx="33.88" ry="21.43"/>
<text text-anchor="middle" x="213.94" y="-24.21" font-family="Times,serif" font-size="10.00" fill="darkblue">v49</text>
<text text-anchor="middle" x="213.94" y="-13.21" font-family="Times,serif" font-size="10.00" fill="darkblue">(id=6)</text>
</g>
<!-- n7&#45;&gt;n6 -->
<g id="edge12" class="edge">
<title>n7&#45;&gt;n6</title>
<path fill="none" stroke="black" d="M200.67,-70.45C202.53,-63.71 204.7,-55.82 206.74,-48.39"/>
<polygon fill="black" stroke="black" points="208.85,-48.65 208.41,-42.3 204.8,-47.53 208.85,-48.65"/>
</g>
<!-- n9 -->
<g id="node10" class="node">
<title>n9</title>
<ellipse fill="lightblue" stroke="black" cx="324.94" cy="-21.21" rx="33.88" ry="21.43"/>
<text text-anchor="middle" x="324.94" y="-24.21" font-family="Times,serif" font-size="10.00" fill="darkblue">v18</text>
<text text-anchor="middle" x="324.94" y="-13.21" font-family="Times,serif" font-size="10.00" fill="darkblue">(id=9)</text>
</g>
<!-- n10 -->
<g id="node11" class="node">
<title>n10</title>
<polygon fill="#f2f2f2" stroke="black" points="380.94,-106.64 326.94,-106.64 326.94,-70.64 380.94,-70.64 380.94,-106.64"/>
<text text-anchor="middle" x="353.94" y="-86.14" font-family="Times,serif" font-size="10.00">#10</text>
</g>
<!-- n10&#45;&gt;n9 -->
<g id="edge13" class="edge">
<title>n10&#45;&gt;n9</title>
<path fill="none" stroke="black" d="M346.32,-70.45C343.22,-63.45 339.57,-55.22 336.17,-47.55"/>
<polygon fill="black" stroke="black" points="337.99,-46.47 333.64,-41.83 334.15,-48.17 337.99,-46.47"/>
</g>
<!-- n11&#45;&gt;n10 -->
<g id="edge14" class="edge">
<title>n11&#45;&gt;n10</title>
<path fill="none" stroke="black" d="M406.27,-134.85C397.84,-127.57 387.89,-118.97 378.94,-111.24"/>
<polygon fill="black" stroke="black" points="380.01,-109.39 374.09,-107.05 377.26,-112.56 380.01,-109.39"/>
</g>
<!-- n14 -->
<g id="node15" class="node">
<title>n14</title>
<polygon fill="#f2f2f2" stroke="black" points="452.94,-106.64 398.94,-106.64 398.94,-70.64 452.94,-70.64 452.94,-106.64"/>
<text text-anchor="middle" x="425.94" y="-86.14" font-family="Times,serif" font-size="10.00">#14</text>
</g>
<!-- n11&#45;&gt;n14 -->
<g id="edge15" class="edge">
<title>n11&#45;&gt;n14</title>
<path fill="none" stroke="black" d="M425.94,-134.85C425.94,-128.24 425.94,-120.55 425.94,-113.41"/>
<polygon fill="black" stroke="black" points="428.04,-113.05 425.94,-107.05 423.84,-113.05 428.04,-113.05"/>
</g>
<!-- n21 -->
<g id="node22" class="node">
<title>n21</title>
<polygon fill="#f2f2f2" stroke="black" points="524.94,-106.64 470.94,-106.64 470.94,-70.64 524.94,-70.64 524.94,-106.64"/>
<text text-anchor="middle" x="497.94" y="-86.14" font-family="Times,serif" font-size="10.00">#21</text>
</g>
<!-- n11&#45;&gt;n21 -->
<g id="edge16" class="edge">
<title>n11&#45;&gt;n21</title>
<path fill="none" stroke="black" d="M445.62,-134.85C454.05,-127.57 463.99,-118.97 472.94,-111.24"/>
<polygon fill="black" stroke="black" points="474.62,-112.56 477.79,-107.05 471.88,-109.39 474.62,-112.56"/>
</g>
<!-- n13 -->
<g id="node14" class="node">
<title>n13</title>
<ellipse fill="lightblue" stroke="black" cx="414.94" cy="-21.21" rx="38.37" ry="21.43"/>
<text text-anchor="middle" x="414.94" y="-24.21" font-family="Times,serif" font-size="10.00" fill="darkblue">v0</text>
<text text-anchor="middle" x="414.94" y="-13.21" font-family="Times,serif" font-size="10.00" fill="darkblue">(id=13)</text>
</g>
<!-- n14&#45;&gt;n13 -->
<g id="edge17" class="edge">
<title>n14&#45;&gt;n13</title>
<path fill="none" stroke="black" d="M423.05,-70.45C421.94,-63.82 420.64,-56.09 419.41,-48.78"/>
<polygon fill="black" stroke="black" points="421.46,-48.35 418.4,-42.78 417.32,-49.05 421.46,-48.35"/>
</g>
<!-- n15 -->
<g id="node16" class="node">
<title>n15</title>
<ellipse fill="lightblue" stroke="black" cx="602.94" cy="-21.21" rx="38.37" ry="21.43"/>
<text text-anchor="middle" x="602.94" y="-24.21" font-family="Times,serif" font-size="10.00" fill="darkblue">v86</text>
<text text-anchor="middle" x="602.94" y="-13.21" font-family="Times,serif" font-size="10.00" fill="darkblue">(id=15)</text>
</g>
<!-- n16 -->
<g id="node17" class="node">
<title>n16</title>
<polygon fill="#f2f2f2" stroke="black" points="596.94,-106.64 542.94,-106.64 542.94,-70.64 596.94,-70.64 596.94,-106.64"/>
<text text-anchor="middle" x="569.94" y="-86.14" font-family="Times,serif" font-size="10.00">#16</text>
</g>
<!-- n16&#45;&gt;n15 -->
<g id="edge18" class="edge">
<title>n16&#45;&gt;n15</title>
<path fill="none" stroke="black" d="M578.61,-70.45C582.14,-63.45 586.29,-55.22 590.16,-47.55"/>
<polygon fill="black" stroke="black" points="592.22,-48.14 593.05,-41.83 588.47,-46.24 592.22,-48.14"/>
</g>
<!-- n17&#45;&gt;n16 -->
<g id="edge19" class="edge">
<title>n17&#45;&gt;n16</title>
<path fill="none" stroke="black" d="M543.78,-134.85C547.76,-127.97 552.42,-119.92 556.69,-112.54"/>
<polygon fill="black" stroke="black" points="558.68,-113.3 559.87,-107.05 555.04,-111.19 558.68,-113.3"/>
</g>
<!-- n18 -->
<g id="node19" class="node">
<title>n18</title>
<ellipse fill="lightblue" stroke="black" cx="652.94" cy="-88.64" rx="38.37" ry="21.43"/>
<text text-anchor="middle" x="652.94" y="-91.64" font-family="Times,serif" font-size="10.00" fill="darkblue">v67</text>
<text text-anchor="middle" x="652.94" y="-80.64" font-family="Times,serif" font-size="10.00" fill="darkblue">(id=18)</text>
</g>
<!-- n19&#45;&gt;n18 -->
<g id="edge20" class="edge">
<title>n19&#45;&gt;n18</title>
<path fill="none" stroke="black" d="M635.5,-134.85C637.79,-128.9 640.43,-122.08 642.94,-115.57"/>
<polygon fill="black" stroke="black" points="645,-116.06 645.2,-109.71 641.08,-114.55 645,-116.06"/>
</g>
<!-- n20 -->
<g id="node21" class="node">
<title>n20</title>
<ellipse fill="lightblue" stroke="black" cx="508.94" cy="-21.21" rx="38.37" ry="21.43"/>
<text text-anchor="middle" x="508.94" y="-24.21" font-family="Times,serif" font-size="10.00" fill="darkblue">v42</text>
<text text-anchor="middle" x="508.94" y="-13.21" font-family="Times,serif" font-size="10.00" fill="darkblue">(id=20)</text>
</g>
<!-- n21&#45;&gt;n20 -->
<g id="edge21" class="edge">
<title>n21&#45;&gt;n20</title>
<path fill="none" stroke="black" d="M500.83,-70.45C501.95,-63.82 503.25,-56.09 504.47,-48.78"/>
<polygon fill="black" stroke="black" points="506.56,-49.05 505.48,-42.78 502.42,-48.35 506.56,-49.05"/>
</g>
</g>
</svg>
