<?xml version="1.0" encoding="UTF-8" standalone="no"?>
<!DOCTYPE svg PUBLIC "-//W3C//DTD SVG 1.1//EN"
 "http://www.w3.org/Graphics/SVG/1.1/DTD/svg11.dtd">
<!-- Generated by graphviz version 2.43.0 (0)
 -->
<!-- Title: PackedOnce Pages: 1 -->
<svg width="642pt" height="254pt"
 viewBox="0.00 0.00 642.12 254.28" xmlns="http://www.w3.org/2000/svg" xmlns:xlink="http://www.w3.org/1999/xlink">
<g id="graph0" class="graph" transform="scale(1 1) rotate(0) translate(4 250.28)">
<title>PackedOnce</title>
<polygon fill="white" stroke="transparent" points="-4,4 -4,-250.28 638.12,-250.28 638.12,4 -4,4"/>
<!-- n0 -->
<g id="node1" class="node">
<title>n0</title>
<ellipse fill="lightblue" stroke="black" cx="206.94" cy="-156.07" rx="33.88" ry="21.43"/>
<text text-anchor="middle" x="206.94" y="-159.07" font-family="Times,serif" font-size="10.00" fill="darkblue">v47</text>
<text text-anchor="middle" x="206.94" y="-148.07" font-family="Times,serif" font-size="10.00" fill="darkblue">(id=0)</text>
</g>
<!-- n1 -->
<g id="node2" class="node">
<title>n1</title>
<polygon fill="gold" stroke="black" points="420.94,-216.82 420.94,-231.74 405.12,-242.28 382.76,-242.28 366.94,-231.74 366.94,-216.82 382.76,-206.28 405.12,-206.28 420.94,-216.82"/>
<polygon fill="none" stroke="black" points="424.94,-214.68 424.94,-233.88 406.34,-246.28 381.55,-246.28 362.94,-233.88 362.94,-214.68 381.55,-202.28 406.34,-202.28 424.94,-214.68"/>
<text text-anchor="middle" x="393.94" y="-221.78" font-family="Times,serif" font-size="10.00">#1</text>
</g>
<!-- n1&#45;&gt;n0 -->
<g id="edge1" class="edge">
<title>n1&#45;&gt;n0</title>
<path fill="none" stroke="black" d="M362.92,-214.64C333.47,-206.14 288.17,-192.3 249.94,-177.28 246.23,-175.82 242.38,-174.19 238.59,-172.51"/>
<polygon fill="black" stroke="black" points="239.42,-170.58 233.08,-170.02 237.68,-174.4 239.42,-170.58"/>
</g>
<!-- n3 -->
<g id="node4" class="node">
<title>n3</title>
<polygon fill="#f2f2f2" stroke="black" points="312.94,-174.07 258.94,-174.07 258.94,-138.07 312.94,-138.07 312.94,-174.07"/>
<text text-anchor="middle" x="285.94" y="-153.57" font-family="Times,serif" font-size="10.00">#3</text>
</g>
<!-- n1&#45;&gt;n3 -->
<g id="edge2" class="edge">
<title>n1&#45;&gt;n3</title>
<path fill="none" stroke="black" d="M371.04,-209.24C355.66,-199.81 335.18,-187.26 318.17,-176.83"/>
<polygon fill="black" stroke="black" points="319.22,-175.01 313.01,-173.66 317.03,-178.59 319.22,-175.01"/>
</g>
<!-- n6 -->
<g id="node7" class="node">
<title>n6</title>
<polygon fill="#f2f2f2" stroke="black" points="384.94,-174.07 330.94,-174.07 330.94,-138.07 384.94,-138.07 384.94,-174.07"/>
<text text-anchor="middle" x="357.94" y="-153.57" font-family="Times,serif" font-size="10.00">#6</text>
</g>
<!-- n1&#45;&gt;n6 -->
<g id="edge3" class="edge">
<title>n1&#45;&gt;n6</title>
<path fill="none" stroke="black" d="M382.35,-201.96C378.49,-194.85 374.17,-186.91 370.25,-179.7"/>
<polygon fill="black" stroke="black" points="372.06,-178.63 367.35,-174.36 368.37,-180.64 372.06,-178.63"/>
</g>
<!-- n14 -->
<g id="node15" class="node">
<title>n14</title>
<polygon fill="#f2f2f2" stroke="black" points="456.94,-174.07 402.94,-174.07 402.94,-138.07 456.94,-138.07 456.94,-174.07"/>
<text text-anchor="middle" x="429.94" y="-153.57" font-family="Times,serif" font-size="10.00">#14</text>
</g>
<!-- n1&#45;&gt;n14 -->
<g id="edge4" class="edge">
<title>n1&#45;&gt;n14</title>
<path fill="none" stroke="black" d="M405.53,-201.96C409.4,-194.85 413.71,-186.91 417.63,-179.7"/>
<polygon fill="black" stroke="black" points="419.52,-180.64 420.54,-174.36 415.83,-178.63 419.52,-180.64"/>
</g>
<!-- n16 -->
<g id="node17" class="node">
<title>n16</title>
<polygon fill="#f2f2f2" stroke="black" points="533.94,-174.07 479.94,-174.07 479.94,-138.07 533.94,-138.07 533.94,-174.07"/>
<text text-anchor="middle" x="506.94" y="-153.57" font-family="Times,serif" font-size="10.00">#16</text>
</g>
<!-- n1&#45;&gt;n16 -->
<g id="edge5" class="edge">
<title>n1&#45;&gt;n16</title>
<path fill="none" stroke="black" d="M417.35,-209.56C433.76,-199.95 455.91,-186.97 474.08,-176.32"/>
<polygon fill="black" stroke="black" points="475.46,-177.94 479.58,-173.1 473.34,-174.32 475.46,-177.94"/>
</g>
<!-- n19 -->
<g id="node20" class="node">
<title>n19</title>
<polygon fill="#f2f2f2" stroke="black" points="613.94,-174.07 559.94,-174.07 559.94,-138.07 613.94,-138.07 613.94,-174.07"/>
<text text-anchor="middle" x="586.94" y="-153.57" font-family="Times,serif" font-size="10.00">#19</text>
</g>
<!-- n1&#45;&gt;n19 -->
<g id="edge6" class="edge">
<title>n1&#45;&gt;n19</title>
<path fill="none" stroke="black" d="M425.16,-214.93C455.59,-206.49 502.98,-192.55 542.94,-177.28 546.55,-175.9 550.28,-174.37 553.97,-172.78"/>
<polygon fill="black" stroke="black" points="555.07,-174.58 559.72,-170.25 553.38,-170.74 555.07,-174.58"/>
</g>
<!-- n2 -->
<g id="node3" class="node">
<title>n2</title>
<ellipse fill="lightblue" stroke="black" cx="89.94" cy="-88.64" rx="33.88" ry="21.43"/>
<text text-anchor="middle" x="89.94" y="-91.64" font-family="Times,serif" font-size="10.00" fill="darkblue">v83</text>
<text text-anchor="middle" x="89.94" y="-80.64" font-family="Times,serif" font-size="10.00" fill="darkblue">(id=2)</text>
</g>
<!-- n3&#45;&gt;n2 -->
<g id="edge7" class="edge">
<title>n3&#45;&gt;n2</title>
<path fill="none" stroke="black" d="M258.84,-138.73C255.89,-137.3 252.89,-135.97 249.94,-134.85 200.2,-116.07 183.33,-126.83 132.94,-109.85 129.05,-108.54 125.06,-106.98 121.13,-105.31"/>
<polygon fill="black" stroke="black" points="121.8,-103.31 115.47,-102.81 120.11,-107.15 121.8,-103.31"/>
</g>
<!-- n4 -->
<g id="node5" class="node">
<title>n4</title>
<ellipse fill="lightblue" stroke="black" cx="33.94" cy="-21.21" rx="33.88" ry="21.43"/>
<text text-anchor="middle" x="33.94" y="-24.21" font-family="Times,serif" font-size="10.00" fill="darkblue">v49</text>
<text text-anchor="middle" x="33.94" y="-13.21" font-family="Times,serif" font-size="10.00" fill="darkblue">(id=4)</text>
</g>
<!-- n5 -->
<g id="node6" class="node">
<title>n5</title>
<polygon fill="#f2f2f2" stroke="black" points="195.94,-106.64 141.94,-106.64 141.94,-70.64 195.94,-70.64 195.94,-106.64"/>
<text text-anchor="middle" x="168.94" y="-86.14" font-family="Times,serif" font-size="10.00">#5</text>
</g>
<!-- n5&#45;&gt;n4 -->
<g id="edge8" class="edge">
<title>n5&#45;&gt;n4</title>
<path fill="none" stroke="black" d="M141.56,-71.93C138.67,-70.37 135.76,-68.84 132.94,-67.43 108.59,-55.19 101.72,-53.78 76.94,-42.43 73.31,-40.76 69.52,-39.01 65.76,-37.25"/>
<polygon fill="black" stroke="black" points="66.61,-35.33 60.28,-34.69 64.83,-39.14 66.61,-35.33"/>
</g>
<!-- n20 -->
<g id="node21" class="node">
<title>n20</title>
<ellipse fill="lightblue" stroke="black" cx="123.94" cy="-21.21" rx="38.37" ry="21.43"/>
<text text-anchor="middle" x="123.94" y="-24.21" font-family="Times,serif" font-size="10.00" fill="darkblue">v42</text>
<text text-anchor="middle" x="123.94" y="-13.21" font-family="Times,serif" font-size="10.00" fill="darkblue">(id=20)</text>
</g>
<!-- n5&#45;&gt;n20 -->
<g id="edge9" class="edge">
<title>n5&#45;&gt;n20</title>
<path fill="none" stroke="black" d="M157.12,-70.45C152.12,-63.19 146.22,-54.6 140.78,-46.7"/>
<polygon fill="black" stroke="black" points="142.24,-45.12 137.11,-41.36 138.78,-47.5 142.24,-45.12"/>
</g>
<!-- n6&#45;&gt;n5 -->
<g id="edge10" class="edge">
<title>n6&#45;&gt;n5</title>
<path fill="none" stroke="black" d="M330.74,-138.96C327.82,-137.48 324.85,-136.08 321.94,-134.85 281.99,-117.99 233.68,-104.84 202.18,-97.17"/>
<polygon fill="black" stroke="black" points="202.43,-95.07 196.11,-95.71 201.45,-99.16 202.43,-95.07"/>
</g>
<!-- n8 -->
<g id="node9" class="node">
<title>n8</title>
<polygon fill="#f2f2f2" stroke="black" points="312.94,-106.64 258.94,-106.64 258.94,-70.64 312.94,-70.64 312.94,-106.64"/>
<text text-anchor="middle" x="285.94" y="-86.14" font-family="Times,serif" font-size="10.00">#8</text>
</g>
<!-- n6&#45;&gt;n8 -->
<g id="edge11" class="edge">
<title>n6&#45;&gt;n8</title>
<path fill="none" stroke="black" d="M339.02,-137.88C329.93,-129.61 318.94,-119.63 309.33,-110.89"/>
<polygon fill="black" stroke="black" points="310.58,-109.2 304.73,-106.71 307.76,-112.3 310.58,-109.2"/>
</g>
<!-- n10 -->
<g id="node11" class="node">
<title>n10</title>
<polygon fill="#f2f2f2" stroke="black" points="384.94,-106.64 330.94,-106.64 330.94,-70.64 384.94,-70.64 384.94,-106.64"/>
<text text-anchor="middle" x="357.94" y="-86.14" font-family="Times,serif" font-size="10.00">#10</text>
</g>
<!-- n6&#45;&gt;n10 -->
<g id="edge12" class="edge">
<title>n6&#45;&gt;n10</title>
<path fill="none" stroke="black" d="M357.94,-137.88C357.94,-130.27 357.94,-121.21 357.94,-113.01"/>
<polygon fill="black" stroke="black" points="360.04,-112.94 357.94,-106.94 355.84,-112.94 360.04,-112.94"/>
</g>
<!-- n7 -->
<g id="node8" class="node">
<title>n7</title>
<ellipse fill="lightblue" stroke="black" cx="213.94" cy="-21.21" rx="33.88" ry="21.43"/>
<text text-anchor="middle" x="213.94" y="-24.21" font-family="Times,serif" font-size="10.00" fill="darkblue">v38</text>
<text text-anchor="middle" x="213.94" y="-13.21" font-family="Times,serif" font-size="10.00" fill="darkblue">(id=7)</text>
</g>
<!-- n8&#45;&gt;n7 -->
<g id="edge13" class="edge">
<title>n8&#45;&gt;n7</title>
<path fill="none" stroke="black" d="M267.02,-70.45C257.86,-62.12 246.77,-52.04 237.1,-43.26"/>
<polygon fill="black" stroke="black" points="238.34,-41.54 232.48,-39.06 235.51,-44.65 238.34,-41.54"/>
</g>
<!-- n11 -->
<g id="node12" class="node">
<title>n11</title>
<ellipse fill="lightblue" stroke="black" cx="303.94" cy="-21.21" rx="38.37" ry="21.43"/>
<text text-anchor="middle" x="303.94" y="-24.21" font-family="Times,serif" font-size="10.00" fill="darkblue">v10</text>
<text text-anchor="middle" x="303.94" y="-13.21" font-family="Times,serif" font-size="10.00" fill="darkblue">(id=11)</text>
</g>
<!-- n8&#45;&gt;n11 -->
<g id="edge14" class="edge">
<title>n8&#45;&gt;n11</title>
<path fill="none" stroke="black" d="M290.67,-70.45C292.53,-63.71 294.7,-55.82 296.74,-48.39"/>
<polygon fill="black" stroke="black" points="298.85,-48.65 298.41,-42.3 294.8,-47.53 298.85,-48.65"/>
</g>
<!-- n9 -->
<g id="node10" class="node">
<title>n9</title>
<ellipse fill="lightblue" stroke="black" cx="393.94" cy="-21.21" rx="33.88" ry="21.43"/>
<text text-anchor="middle" x="393.94" y="-24.21" font-family="Times,serif" font-size="10.00" fill="darkblue">v18</text>
<text text-anchor="middle" x="393.94" y="-13.21" font-family="Times,serif" font-size="10.00" fill="darkblue">(id=9)</text>
</g>
<!-- n10&#45;&gt;n9 -->
<g id="edge15" class="edge">
<title>n10&#45;&gt;n9</title>
<path fill="none" stroke="black" d="M367.4,-70.45C371.33,-63.31 375.96,-54.89 380.25,-47.1"/>
<polygon fill="black" stroke="black" points="382.09,-48.1 383.15,-41.83 378.41,-46.08 382.09,-48.1"/>
</g>
<!-- n12 -->
<g id="node13" class="node">
<title>n12</title>
<ellipse fill="lightblue" stroke="black" cx="483.94" cy="-21.21" rx="38.37" ry="21.43"/>
<text text-anchor="middle" x="483.94" y="-24.21" font-family="Times,serif" font-size="10.00" fill="darkblue">v0</text>
<text text-anchor="middle" x="483.94" y="-13.21" font-family="Times,serif" font-size="10.00" fill="darkblue">(id=12)</text>
</g>
<!-- n13 -->
<g id="node14" class="node">
<title>n13</title>
<polygon fill="#f2f2f2" stroke="black" points="456.94,-106.64 402.94,-106.64 402.94,-70.64 456.94,-70.64 456.94,-106.64"/>
<text text-anchor="middle" x="429.94" y="-86.14" font-family="Times,serif" font-size="10.00">#13</text>
</g>
<!-- n13&#45;&gt;n12 -->
<g id="edge16" class="edge">
<title>n13&#45;&gt;n12</title>
<path fill="none" stroke="black" d="M444.13,-70.45C450.34,-62.92 457.73,-53.97 464.44,-45.84"/>
<polygon fill="black" stroke="black" points="466.32,-46.86 468.52,-40.9 463.08,-44.19 466.32,-46.86"/>
</g>
<!-- n14&#45;&gt;n13 -->
<g id="edge17" class="edge">
<title>n14&#45;&gt;n13</title>
<path fill="none" stroke="black" d="M429.94,-137.88C429.94,-130.27 429.94,-121.21 429.94,-113.01"/>
<polygon fill="black" stroke="black" points="432.04,-112.94 429.94,-106.94 427.84,-112.94 432.04,-112.94"/>
</g>
<!-- n15 -->
<g id="node16" class="node">
<title>n15</title>
<ellipse fill="lightblue" stroke="black" cx="512.94" cy="-88.64" rx="38.37" ry="21.43"/>
<text text-anchor="middle" x="512.94" y="-91.64" font-family="Times,serif" font-size="10.00" fill="darkblue">v86</text>
<text text-anchor="middle" x="512.94" y="-80.64" font-family="Times,serif" font-size="10.00" fill="darkblue">(id=15)</text>
</g>
<!-- n16&#45;&gt;n15 -->
<g id="edge18" class="edge">
<title>n16&#45;&gt;n15</title>
<path fill="none" stroke="black" d="M508.52,-137.88C509.13,-131.25 509.83,-123.52 510.5,-116.21"/>
<polygon fill="black" stroke="black" points="512.6,-116.37 511.06,-110.21 508.42,-115.99 512.6,-116.37"/>
</g>
<!-- n17 -->
<g id="node18" class="node">
<title>n17</title>
<ellipse fill="lightblue" stroke="black" cx="595.94" cy="-21.21" rx="38.37" ry="21.43"/>
<text text-anchor="middle" x="595.94" y="-24.21" font-family="Times,serif" font-size="10.00" fill="darkblue">v67</text>
<text text-anchor="middle" x="595.94" y="-13.21" font-family="Times,serif" font-size="10.00" fill="darkblue">(id=17)</text>
</g>
<!-- n18 -->
<g id="node19" class="node">
<title>n18</title>
<polygon fill="#f2f2f2" stroke="black" points="622.94,-106.64 568.94,-106.64 568.94,-70.64 622.94,-70.64 622.94,-106.64"/>
<text text-anchor="middle" x="595.94" y="-86.14" font-family="Times,serif" font-size="10.00">#18</text>
</g>
<!-- n18&#45;&gt;n17 -->
<g id="edge19" class="edge">
<title>n18&#45;&gt;n17</title>
<path fill="none" stroke="black" d="M595.94,-70.45C595.94,-63.82 595.94,-56.09 595.94,-48.78"/>
<polygon fill="black" stroke="black" points="598.04,-48.78 595.94,-42.78 593.84,-48.78 598.04,-48.78"/>
</g>
<!-- n19&#45;&gt;n18 -->
<g id="edge20" class="edge">
<title>n19&#45;&gt;n18</title>
<path fill="none" stroke="black" d="M589.31,-137.88C590.35,-130.27 591.6,-121.21 592.73,-113.01"/>
<polygon fill="black" stroke="black" points="594.82,-113.17 593.56,-106.94 590.66,-112.6 594.82,-113.17"/>
</g>
</g>
</svg>
