<?xml version="1.0" encoding="UTF-8" standalone="no"?>
<!DOCTYPE svg PUBLIC "-//W3C//DTD SVG 1.1//EN"
 "http://www.w3.org/Graphics/SVG/1.1/DTD/svg11.dtd">
<!-- Generated by graphviz version 2.43.0 (0)
 -->
<!-- Title: PackedOnce Pages: 1 -->
<svg width="822pt" height="248pt"
 viewBox="0.00 0.00 822.12 247.85" xmlns="http://www.w3.org/2000/svg" xmlns:xlink="http://www.w3.org/1999/xlink">
<g id="graph0" class="graph" transform="scale(1 1) rotate(0) translate(4 243.85)">
<title>PackedOnce</title>
<polygon fill="white" stroke="transparent" points="-4,4 -4,-243.85 818.12,-243.85 818.12,4 -4,4"/>
<!-- n0 -->
<g id="node1" class="node">
<title>n0</title>
<ellipse fill="lightblue" stroke="black" cx="33.94" cy="-21.21" rx="33.88" ry="21.43"/>
<text text-anchor="middle" x="33.94" y="-24.21" font-family="Times,serif" font-size="10.00" fill="darkblue">v47</text>
<text text-anchor="middle" x="33.94" y="-13.21" font-family="Times,serif" font-size="10.00" fill="darkblue">(id=0)</text>
</g>
<!-- n1 -->
<g id="node2" class="node">
<title>n1</title>
<polygon fill="#f2f2f2" stroke="black" points="60.94,-106.64 6.94,-106.64 6.94,-70.64 60.94,-70.64 60.94,-106.64"/>
<text text-anchor="middle" x="33.94" y="-86.14" font-family="Times,serif" font-size="10.00">#1</text>
</g>
<!-- n1&#45;&gt;n0 -->
<g id="edge1" class="edge">
<title>n1&#45;&gt;n0</title>
<path fill="none" stroke="black" d="M33.94,-70.45C33.94,-63.82 33.94,-56.09 33.94,-48.78"/>
<polygon fill="black" stroke="black" points="36.04,-48.78 33.94,-42.78 31.84,-48.78 36.04,-48.78"/>
</g>
<!-- n2 -->
<g id="node3" class="node">
<title>n2</title>
<polygon fill="#f2f2f2" stroke="black" points="146.94,-170.85 92.94,-170.85 92.94,-134.85 146.94,-134.85 146.94,-170.85"/>
<text text-anchor="middle" x="119.94" y="-150.35" font-family="Times,serif" font-size="10.00">#2</text>
</g>
<!-- n2&#45;&gt;n1 -->
<g id="edge2" class="edge">
<title>n2&#45;&gt;n1</title>
<path fill="none" stroke="black" d="M96.44,-134.85C86,-127.3 73.62,-118.35 62.64,-110.4"/>
<polygon fill="black" stroke="black" points="63.8,-108.65 57.71,-106.84 61.34,-112.05 63.8,-108.65"/>
</g>
<!-- n3 -->
<g id="node4" class="node">
<title>n3</title>
<polygon fill="gold" stroke="black" points="506.94,-210.4 506.94,-225.31 491.12,-235.85 468.76,-235.85 452.94,-225.31 452.94,-210.4 468.76,-199.85 491.12,-199.85 506.94,-210.4"/>
<polygon fill="none" stroke="black" points="510.94,-208.26 510.94,-227.45 492.34,-239.85 467.55,-239.85 448.94,-227.45 448.94,-208.26 467.55,-195.85 492.34,-195.85 510.94,-208.26"/>
<text text-anchor="middle" x="479.94" y="-215.35" font-family="Times,serif" font-size="10.00">#3</text>
</g>
<!-- n3&#45;&gt;n2 -->
<g id="edge3" class="edge">
<title>n3&#45;&gt;n2</title>
<path fill="none" stroke="black" d="M448.94,-211.43C381.55,-199.64 222.27,-171.76 153.04,-159.64"/>
<polygon fill="black" stroke="black" points="153.29,-157.56 147.02,-158.59 152.57,-161.69 153.29,-157.56"/>
</g>
<!-- n5 -->
<g id="node6" class="node">
<title>n5</title>
<polygon fill="#f2f2f2" stroke="black" points="304.94,-170.85 250.94,-170.85 250.94,-134.85 304.94,-134.85 304.94,-170.85"/>
<text text-anchor="middle" x="277.94" y="-150.35" font-family="Times,serif" font-size="10.00">#5</text>
</g>
<!-- n3&#45;&gt;n5 -->
<g id="edge4" class="edge">
<title>n3&#45;&gt;n5</title>
<path fill="none" stroke="black" d="M449.7,-207.42C412.51,-195.82 349.59,-176.2 311.11,-164.2"/>
<polygon fill="black" stroke="black" points="311.5,-162.12 305.15,-162.34 310.25,-166.13 311.5,-162.12"/>
</g>
<!-- n8 -->
<g id="node9" class="node">
<title>n8</title>
<polygon fill="#f2f2f2" stroke="black" points="470.94,-170.85 416.94,-170.85 416.94,-134.85 470.94,-134.85 470.94,-170.85"/>
<text text-anchor="middle" x="443.94" y="-150.35" font-family="Times,serif" font-size="10.00">#8</text>
</g>
<!-- n3&#45;&gt;n8 -->
<g id="edge5" class="edge">
<title>n3&#45;&gt;n8</title>
<path fill="none" stroke="black" d="M467.75,-195.52C464.25,-189.4 460.43,-182.71 456.89,-176.51"/>
<polygon fill="black" stroke="black" points="458.53,-175.15 453.73,-170.98 454.88,-177.24 458.53,-175.15"/>
</g>
<!-- n12 -->
<g id="node13" class="node">
<title>n12</title>
<polygon fill="#f2f2f2" stroke="black" points="542.94,-170.85 488.94,-170.85 488.94,-134.85 542.94,-134.85 542.94,-170.85"/>
<text text-anchor="middle" x="515.94" y="-150.35" font-family="Times,serif" font-size="10.00">#12</text>
</g>
<!-- n3&#45;&gt;n12 -->
<g id="edge6" class="edge">
<title>n3&#45;&gt;n12</title>
<path fill="none" stroke="black" d="M492.13,-195.52C495.63,-189.4 499.45,-182.71 503,-176.51"/>
<polygon fill="black" stroke="black" points="505,-177.24 506.15,-170.98 501.35,-175.15 505,-177.24"/>
</g>
<!-- n18 -->
<g id="node19" class="node">
<title>n18</title>
<polygon fill="#f2f2f2" stroke="black" points="666.94,-170.85 612.94,-170.85 612.94,-134.85 666.94,-134.85 666.94,-170.85"/>
<text text-anchor="middle" x="639.94" y="-150.35" font-family="Times,serif" font-size="10.00">#18</text>
</g>
<!-- n3&#45;&gt;n18 -->
<g id="edge7" class="edge">
<title>n3&#45;&gt;n18</title>
<path fill="none" stroke="black" d="M507.81,-205.88C535.51,-194.97 577.98,-178.25 607.25,-166.72"/>
<polygon fill="black" stroke="black" points="608.11,-168.64 612.92,-164.49 606.57,-164.74 608.11,-168.64"/>
</g>
<!-- n21 -->
<g id="node22" class="node">
<title>n21</title>
<polygon fill="#f2f2f2" stroke="black" points="770.94,-170.85 716.94,-170.85 716.94,-134.85 770.94,-134.85 770.94,-170.85"/>
<text text-anchor="middle" x="743.94" y="-150.35" font-family="Times,serif" font-size="10.00">#21</text>
</g>
<!-- n3&#45;&gt;n21 -->
<g id="edge8" class="edge">
<title>n3&#45;&gt;n21</title>
<path fill="none" stroke="black" d="M511.2,-209.66C549.92,-200.72 617.85,-184.93 675.94,-170.85 687.32,-168.1 699.74,-165.01 710.83,-162.23"/>
<polygon fill="black" stroke="black" points="711.52,-164.22 716.83,-160.73 710.5,-160.15 711.52,-164.22"/>
</g>
<!-- n4 -->
<g id="node5" class="node">
<title>n4</title>
<ellipse fill="lightblue" stroke="black" cx="112.94" cy="-88.64" rx="33.88" ry="21.43"/>
<text text-anchor="middle" x="112.94" y="-91.64" font-family="Times,serif" font-size="10.00" fill="darkblue">v83</text>
<text text-anchor="middle" x="112.94" y="-80.64" font-family="Times,serif" font-size="10.00" fill="darkblue">(id=4)</text>
</g>
<!-- n5&#45;&gt;n4 -->
<g id="edge9" class="edge">
<title>n5&#45;&gt;n4</title>
<path fill="none" stroke="black" d="M250.5,-143.34C225.56,-135.39 187.91,-122.82 155.94,-109.85 152.24,-108.35 148.41,-106.7 144.62,-105"/>
<polygon fill="black" stroke="black" points="145.45,-103.07 139.12,-102.49 143.71,-106.89 145.45,-103.07"/>
</g>
<!-- n9 -->
<g id="node10" class="node">
<title>n9</title>
<ellipse fill="lightblue" stroke="black" cx="198.94" cy="-88.64" rx="33.88" ry="21.43"/>
<text text-anchor="middle" x="198.94" y="-91.64" font-family="Times,serif" font-size="10.00" fill="darkblue">v38</text>
<text text-anchor="middle" x="198.94" y="-80.64" font-family="Times,serif" font-size="10.00" fill="darkblue">(id=9)</text>
</g>
<!-- n5&#45;&gt;n9 -->
<g id="edge10" class="edge">
<title>n5&#45;&gt;n9</title>
<path fill="none" stroke="black" d="M256.35,-134.85C246.46,-127.06 234.66,-117.77 224.35,-109.65"/>
<polygon fill="black" stroke="black" points="225.43,-107.82 219.41,-105.76 222.83,-111.12 225.43,-107.82"/>
</g>
<!-- n14 -->
<g id="node15" class="node">
<title>n14</title>
<polygon fill="#f2f2f2" stroke="black" points="304.94,-106.64 250.94,-106.64 250.94,-70.64 304.94,-70.64 304.94,-106.64"/>
<text text-anchor="middle" x="277.94" y="-86.14" font-family="Times,serif" font-size="10.00">#14</text>
</g>
<!-- n5&#45;&gt;n14 -->
<g id="edge11" class="edge">
<title>n5&#45;&gt;n14</title>
<path fill="none" stroke="black" d="M277.94,-134.85C277.94,-128.24 277.94,-120.55 277.94,-113.41"/>
<polygon fill="black" stroke="black" points="280.04,-113.05 277.94,-107.05 275.84,-113.05 280.04,-113.05"/>
</g>
<!-- n16 -->
<g id="node17" class="node">
<title>n16</title>
<ellipse fill="lightblue" stroke="black" cx="360.94" cy="-88.64" rx="38.37" ry="21.43"/>
<text text-anchor="middle" x="360.94" y="-91.64" font-family="Times,serif" font-size="10.00" fill="darkblue">v86</text>
<text text-anchor="middle" x="360.94" y="-80.64" font-family="Times,serif" font-size="10.00" fill="darkblue">(id=16)</text>
</g>
<!-- n5&#45;&gt;n16 -->
<g id="edge12" class="edge">
<title>n5&#45;&gt;n16</title>
<path fill="none" stroke="black" d="M300.62,-134.85C310.94,-127.12 323.24,-117.9 334.02,-109.82"/>
<polygon fill="black" stroke="black" points="335.32,-111.47 338.86,-106.19 332.8,-108.11 335.32,-111.47"/>
</g>
<!-- n6 -->
<g id="node7" class="node">
<title>n6</title>
<ellipse fill="lightblue" stroke="black" cx="434.94" cy="-21.21" rx="33.88" ry="21.43"/>
<text text-anchor="middle" x="434.94" y="-24.21" font-family="Times,serif" font-size="10.00" fill="darkblue">v49</text>
<text text-anchor="middle" x="434.94" y="-13.21" font-family="Times,serif" font-size="10.00" fill="darkblue">(id=6)</text>
</g>
<!-- n7 -->
<g id="node8" class="node">
<title>n7</title>
<polygon fill="#f2f2f2" stroke="black" points="470.94,-106.64 416.94,-106.64 416.94,-70.64 470.94,-70.64 470.94,-106.64"/>
<text text-anchor="middle" x="443.94" y="-86.14" font-family="Times,serif" font-size="10.00">#7</text>
</g>
<!-- n7&#45;&gt;n6 -->
<g id="edge13" class="edge">
<title>n7&#45;&gt;n6</title>
<path fill="none" stroke="black" d="M441.58,-70.45C440.67,-63.82 439.6,-56.09 438.6,-48.78"/>
<polygon fill="black" stroke="black" points="440.67,-48.44 437.77,-42.78 436.51,-49.01 440.67,-48.44"/>
</g>
<!-- n8&#45;&gt;n7 -->
<g id="edge14" class="edge">
<title>n8&#45;&gt;n7</title>
<path fill="none" stroke="black" d="M443.94,-134.85C443.94,-128.24 443.94,-120.55 443.94,-113.41"/>
<polygon fill="black" stroke="black" points="446.04,-113.05 443.94,-107.05 441.84,-113.05 446.04,-113.05"/>
</g>
<!-- n10 -->
<g id="node11" class="node">
<title>n10</title>
<ellipse fill="lightblue" stroke="black" cx="524.94" cy="-21.21" rx="38.37" ry="21.43"/>
<text text-anchor="middle" x="524.94" y="-24.21" font-family="Times,serif" font-size="10.00" fill="darkblue">v18</text>
<text text-anchor="middle" x="524.94" y="-13.21" font-family="Times,serif" font-size="10.00" fill="darkblue">(id=10)</text>
</g>
<!-- n11 -->
<g id="node12" class="node">
<title>n11</title>
<polygon fill="#f2f2f2" stroke="black" points="542.94,-106.64 488.94,-106.64 488.94,-70.64 542.94,-70.64 542.94,-106.64"/>
<text text-anchor="middle" x="515.94" y="-86.14" font-family="Times,serif" font-size="10.00">#11</text>
</g>
<!-- n11&#45;&gt;n10 -->
<g id="edge15" class="edge">
<title>n11&#45;&gt;n10</title>
<path fill="none" stroke="black" d="M518.31,-70.45C519.22,-63.82 520.28,-56.09 521.29,-48.78"/>
<polygon fill="black" stroke="black" points="523.37,-49.01 522.11,-42.78 519.21,-48.44 523.37,-49.01"/>
</g>
<!-- n12&#45;&gt;n11 -->
<g id="edge16" class="edge">
<title>n12&#45;&gt;n11</title>
<path fill="none" stroke="black" d="M515.94,-134.85C515.94,-128.24 515.94,-120.55 515.94,-113.41"/>
<polygon fill="black" stroke="black" points="518.04,-113.05 515.94,-107.05 513.84,-113.05 518.04,-113.05"/>
</g>
<!-- n15 -->
<g id="node16" class="node">
<title>n15</title>
<ellipse fill="lightblue" stroke="black" cx="598.94" cy="-88.64" rx="38.37" ry="21.43"/>
<text text-anchor="middle" x="598.94" y="-91.64" font-family="Times,serif" font-size="10.00" fill="darkblue">v0</text>
<text text-anchor="middle" x="598.94" y="-80.64" font-family="Times,serif" font-size="10.00" fill="darkblue">(id=15)</text>
</g>
<!-- n12&#45;&gt;n15 -->
<g id="edge17" class="edge">
<title>n12&#45;&gt;n15</title>
<path fill="none" stroke="black" d="M538.62,-134.85C548.94,-127.12 561.24,-117.9 572.02,-109.82"/>
<polygon fill="black" stroke="black" points="573.32,-111.47 576.86,-106.19 570.8,-108.11 573.32,-111.47"/>
</g>
<!-- n13 -->
<g id="node14" class="node">
<title>n13</title>
<ellipse fill="lightblue" stroke="black" cx="277.94" cy="-21.21" rx="38.37" ry="21.43"/>
<text text-anchor="middle" x="277.94" y="-24.21" font-family="Times,serif" font-size="10.00" fill="darkblue">v10</text>
<text text-anchor="middle" x="277.94" y="-13.21" font-family="Times,serif" font-size="10.00" fill="darkblue">(id=13)</text>
</g>
<!-- n14&#45;&gt;n13 -->
<g id="edge18" class="edge">
<title>n14&#45;&gt;n13</title>
<path fill="none" stroke="black" d="M277.94,-70.45C277.94,-63.82 277.94,-56.09 277.94,-48.78"/>
<polygon fill="black" stroke="black" points="280.04,-48.78 277.94,-42.78 275.84,-48.78 280.04,-48.78"/>
</g>
<!-- n17 -->
<g id="node18" class="node">
<title>n17</title>
<ellipse fill="lightblue" stroke="black" cx="692.94" cy="-88.64" rx="38.37" ry="21.43"/>
<text text-anchor="middle" x="692.94" y="-91.64" font-family="Times,serif" font-size="10.00" fill="darkblue">v67</text>
<text text-anchor="middle" x="692.94" y="-80.64" font-family="Times,serif" font-size="10.00" fill="darkblue">(id=17)</text>
</g>
<!-- n18&#45;&gt;n17 -->
<g id="edge19" class="edge">
<title>n18&#45;&gt;n17</title>
<path fill="none" stroke="black" d="M654.42,-134.85C660.1,-128.19 666.71,-120.43 672.84,-113.24"/>
<polygon fill="black" stroke="black" points="674.69,-114.3 676.99,-108.37 671.5,-111.57 674.69,-114.3"/>
</g>
<!-- n19 -->
<g id="node20" class="node">
<title>n19</title>
<ellipse fill="lightblue" stroke="black" cx="775.94" cy="-21.21" rx="38.37" ry="21.43"/>
<text text-anchor="middle" x="775.94" y="-24.21" font-family="Times,serif" font-size="10.00" fill="darkblue">v42</text>
<text text-anchor="middle" x="775.94" y="-13.21" font-family="Times,serif" font-size="10.00" fill="darkblue">(id=19)</text>
</g>
<!-- n20 -->
<g id="node21" class="node">
<title>n20</title>
<polygon fill="#f2f2f2" stroke="black" points="802.94,-106.64 748.94,-106.64 748.94,-70.64 802.94,-70.64 802.94,-106.64"/>
<text text-anchor="middle" x="775.94" y="-86.14" font-family="Times,serif" font-size="10.00">#20</text>
</g>
<!-- n20&#45;&gt;n19 -->
<g id="edge20" class="edge">
<title>n20&#45;&gt;n19</title>
<path fill="none" stroke="black" d="M775.94,-70.45C775.94,-63.82 775.94,-56.09 775.94,-48.78"/>
<polygon fill="black" stroke="black" points="778.04,-48.78 775.94,-42.78 773.84,-48.78 778.04,-48.78"/>
</g>
<!-- n21&#45;&gt;n20 -->
<g id="edge21" class="edge">
<title>n21&#45;&gt;n20</title>
<path fill="none" stroke="black" d="M752.69,-134.85C756.22,-127.97 760.36,-119.92 764.16,-112.54"/>
<polygon fill="black" stroke="black" points="766.11,-113.35 766.98,-107.05 762.37,-111.43 766.11,-113.35"/>
</g>
</g>
</svg>
